<mxfile host="app.diagrams.net" modified="2022-07-22T04:51:55.419Z" agent="5.0 (X11; Linux x86_64) AppleWebKit/537.36 (KHTML, like Gecko) Chrome/90.0.4430.93 Safari/537.36" etag="qG4cM_wR1XtO-dS6SuyS" version="20.1.1" type="github">
  <diagram id="lU0gerZFF5gP0AxoTNrU" name="第 1 页">
    <mxGraphModel dx="1355" dy="1882" grid="1" gridSize="10" guides="1" tooltips="1" connect="1" arrows="1" fold="1" page="1" pageScale="1" pageWidth="827" pageHeight="1169" math="0" shadow="0">
      <root>
        <mxCell id="0" />
        <mxCell id="1" parent="0" />
        <mxCell id="oH58Pw6CGcHLGi48Cgh2-16" style="edgeStyle=orthogonalEdgeStyle;rounded=0;orthogonalLoop=1;jettySize=auto;html=1;entryX=0;entryY=0.5;entryDx=0;entryDy=0;exitX=0;exitY=1;exitDx=0;exitDy=0;" edge="1" parent="1" source="oH58Pw6CGcHLGi48Cgh2-18" target="oH58Pw6CGcHLGi48Cgh2-20">
          <mxGeometry relative="1" as="geometry">
            <Array as="points">
              <mxPoint x="280" y="-316" />
              <mxPoint x="280" y="-134" />
            </Array>
          </mxGeometry>
        </mxCell>
        <mxCell id="oH58Pw6CGcHLGi48Cgh2-57" style="edgeStyle=orthogonalEdgeStyle;rounded=0;orthogonalLoop=1;jettySize=auto;html=1;entryX=1;entryY=1;entryDx=0;entryDy=0;exitX=1;exitY=0;exitDx=0;exitDy=0;" edge="1" parent="1" source="oH58Pw6CGcHLGi48Cgh2-18" target="oH58Pw6CGcHLGi48Cgh2-30">
          <mxGeometry relative="1" as="geometry">
            <Array as="points">
              <mxPoint x="470" y="-372" />
              <mxPoint x="470" y="-522" />
            </Array>
          </mxGeometry>
        </mxCell>
        <mxCell id="oH58Pw6CGcHLGi48Cgh2-18" value="iservice" style="ellipse;whiteSpace=wrap;html=1;" vertex="1" parent="1">
          <mxGeometry x="310" y="-384" width="120" height="80" as="geometry" />
        </mxCell>
        <mxCell id="oH58Pw6CGcHLGi48Cgh2-19" style="edgeStyle=orthogonalEdgeStyle;rounded=0;orthogonalLoop=1;jettySize=auto;html=1;entryX=1;entryY=1;entryDx=0;entryDy=0;exitX=1;exitY=0.5;exitDx=0;exitDy=0;" edge="1" parent="1" source="oH58Pw6CGcHLGi48Cgh2-20" target="oH58Pw6CGcHLGi48Cgh2-18">
          <mxGeometry relative="1" as="geometry">
            <Array as="points">
              <mxPoint x="460" y="-134" />
              <mxPoint x="460" y="-316" />
            </Array>
          </mxGeometry>
        </mxCell>
        <mxCell id="oH58Pw6CGcHLGi48Cgh2-20" value="uart0&lt;br&gt;can&lt;br&gt;rs485&lt;br&gt;gpio" style="whiteSpace=wrap;html=1;aspect=fixed;" vertex="1" parent="1">
          <mxGeometry x="320" y="-184" width="100" height="100" as="geometry" />
        </mxCell>
        <mxCell id="oH58Pw6CGcHLGi48Cgh2-21" value="循环队列&lt;br&gt;cmd_queue" style="rounded=0;whiteSpace=wrap;html=1;" vertex="1" parent="1">
          <mxGeometry x="420" y="-254" width="80" height="40" as="geometry" />
        </mxCell>
        <mxCell id="oH58Pw6CGcHLGi48Cgh2-23" value="payload格式化的数据" style="text;html=1;align=center;verticalAlign=middle;resizable=0;points=[];autosize=1;strokeColor=none;" vertex="1" parent="1">
          <mxGeometry x="140" y="-234" width="140" height="30" as="geometry" />
        </mxCell>
        <mxCell id="oH58Pw6CGcHLGi48Cgh2-24" value="payload数据" style="text;html=1;align=center;verticalAlign=middle;resizable=0;points=[];autosize=1;strokeColor=none;" vertex="1" parent="1">
          <mxGeometry x="490" y="-549" width="90" height="30" as="geometry" />
        </mxCell>
        <mxCell id="oH58Pw6CGcHLGi48Cgh2-29" style="edgeStyle=orthogonalEdgeStyle;rounded=0;orthogonalLoop=1;jettySize=auto;html=1;entryX=0;entryY=0;entryDx=0;entryDy=0;exitX=0;exitY=1;exitDx=0;exitDy=0;" edge="1" parent="1" source="oH58Pw6CGcHLGi48Cgh2-30" target="oH58Pw6CGcHLGi48Cgh2-18">
          <mxGeometry relative="1" as="geometry">
            <Array as="points">
              <mxPoint x="280" y="-522" />
              <mxPoint x="280" y="-372" />
            </Array>
            <mxPoint x="280" y="-544" as="targetPoint" />
          </mxGeometry>
        </mxCell>
        <mxCell id="oH58Pw6CGcHLGi48Cgh2-54" style="edgeStyle=orthogonalEdgeStyle;rounded=0;orthogonalLoop=1;jettySize=auto;html=1;entryX=1;entryY=0.5;entryDx=0;entryDy=0;exitX=1.017;exitY=0.425;exitDx=0;exitDy=0;exitPerimeter=0;" edge="1" parent="1" source="oH58Pw6CGcHLGi48Cgh2-30" target="oH58Pw6CGcHLGi48Cgh2-53">
          <mxGeometry relative="1" as="geometry">
            <Array as="points">
              <mxPoint x="470" y="-556" />
              <mxPoint x="470" y="-920" />
            </Array>
          </mxGeometry>
        </mxCell>
        <mxCell id="oH58Pw6CGcHLGi48Cgh2-30" value="protocol_server" style="ellipse;whiteSpace=wrap;html=1;" vertex="1" parent="1">
          <mxGeometry x="310" y="-590" width="120" height="80" as="geometry" />
        </mxCell>
        <mxCell id="oH58Pw6CGcHLGi48Cgh2-40" style="edgeStyle=orthogonalEdgeStyle;rounded=0;orthogonalLoop=1;jettySize=auto;html=1;entryX=0;entryY=0.5;entryDx=0;entryDy=0;" edge="1" parent="1" source="oH58Pw6CGcHLGi48Cgh2-41" target="oH58Pw6CGcHLGi48Cgh2-18">
          <mxGeometry relative="1" as="geometry" />
        </mxCell>
        <mxCell id="oH58Pw6CGcHLGi48Cgh2-41" value="format_array" style="rounded=0;whiteSpace=wrap;html=1;" vertex="1" parent="1">
          <mxGeometry x="30" y="-434" width="85" height="40" as="geometry" />
        </mxCell>
        <mxCell id="oH58Pw6CGcHLGi48Cgh2-49" style="edgeStyle=orthogonalEdgeStyle;rounded=0;orthogonalLoop=1;jettySize=auto;html=1;entryX=1;entryY=0.5;entryDx=0;entryDy=0;" edge="1" parent="1" source="oH58Pw6CGcHLGi48Cgh2-42" target="oH58Pw6CGcHLGi48Cgh2-18">
          <mxGeometry relative="1" as="geometry" />
        </mxCell>
        <mxCell id="oH58Pw6CGcHLGi48Cgh2-42" value="通过格式化数组，判断一帧，并去掉格式，得到payload数据" style="text;html=1;align=center;verticalAlign=middle;resizable=0;points=[];autosize=1;strokeColor=none;fillColor=none;" vertex="1" parent="1">
          <mxGeometry x="475" y="-359" width="340" height="30" as="geometry" />
        </mxCell>
        <mxCell id="oH58Pw6CGcHLGi48Cgh2-46" style="edgeStyle=orthogonalEdgeStyle;rounded=0;orthogonalLoop=1;jettySize=auto;html=1;entryX=0.5;entryY=0;entryDx=0;entryDy=0;exitX=0;exitY=0.5;exitDx=0;exitDy=0;" edge="1" parent="1" source="oH58Pw6CGcHLGi48Cgh2-44" target="oH58Pw6CGcHLGi48Cgh2-45">
          <mxGeometry relative="1" as="geometry" />
        </mxCell>
        <mxCell id="oH58Pw6CGcHLGi48Cgh2-44" value="machine_xxx" style="rounded=0;whiteSpace=wrap;html=1;" vertex="1" parent="1">
          <mxGeometry x="310" y="-820" width="120" height="60" as="geometry" />
        </mxCell>
        <mxCell id="oH58Pw6CGcHLGi48Cgh2-47" style="edgeStyle=orthogonalEdgeStyle;rounded=0;orthogonalLoop=1;jettySize=auto;html=1;entryX=0;entryY=0.5;entryDx=0;entryDy=0;" edge="1" parent="1" source="oH58Pw6CGcHLGi48Cgh2-45" target="oH58Pw6CGcHLGi48Cgh2-30">
          <mxGeometry relative="1" as="geometry" />
        </mxCell>
        <mxCell id="oH58Pw6CGcHLGi48Cgh2-45" value="消息队列" style="rounded=0;whiteSpace=wrap;html=1;" vertex="1" parent="1">
          <mxGeometry x="240" y="-690" width="80" height="40" as="geometry" />
        </mxCell>
        <mxCell id="oH58Pw6CGcHLGi48Cgh2-48" value="轮询" style="text;html=1;align=center;verticalAlign=middle;resizable=0;points=[];autosize=1;strokeColor=none;fillColor=none;" vertex="1" parent="1">
          <mxGeometry x="240" y="-774" width="50" height="30" as="geometry" />
        </mxCell>
        <mxCell id="oH58Pw6CGcHLGi48Cgh2-51" style="edgeStyle=orthogonalEdgeStyle;rounded=0;orthogonalLoop=1;jettySize=auto;html=1;entryX=0;entryY=0.5;entryDx=0;entryDy=0;" edge="1" parent="1" source="oH58Pw6CGcHLGi48Cgh2-50" target="oH58Pw6CGcHLGi48Cgh2-18">
          <mxGeometry relative="1" as="geometry" />
        </mxCell>
        <mxCell id="oH58Pw6CGcHLGi48Cgh2-50" value="通过格式化数组，把下发的payload数据格式化" style="text;html=1;align=center;verticalAlign=middle;resizable=0;points=[];autosize=1;strokeColor=none;fillColor=none;" vertex="1" parent="1">
          <mxGeometry y="-334" width="270" height="30" as="geometry" />
        </mxCell>
        <mxCell id="oH58Pw6CGcHLGi48Cgh2-52" value="payload数据" style="text;html=1;align=center;verticalAlign=middle;resizable=0;points=[];autosize=1;strokeColor=none;fillColor=none;" vertex="1" parent="1">
          <mxGeometry x="170" y="-549" width="90" height="30" as="geometry" />
        </mxCell>
        <mxCell id="oH58Pw6CGcHLGi48Cgh2-53" value="event_queue" style="rounded=0;whiteSpace=wrap;html=1;" vertex="1" parent="1">
          <mxGeometry x="310" y="-950" width="120" height="60" as="geometry" />
        </mxCell>
      </root>
    </mxGraphModel>
  </diagram>
</mxfile>
